<svg xmlns="http://www.w3.org/2000/svg" viewBox="0 0 800 800" shape-rendering="crispEdges">
  <rect width="800" height="800" fill="none"/>
  <g fill="#00A6AE" opacity="0.75">
    <rect x="778" y="10" width="12" height="12"/>
    <rect x="746" y="106" width="12" height="12"/>
    <rect x="778" y="138" width="12" height="12"/>
    <rect x="106" y="362" width="12" height="12"/>
    <rect x="682" y="298" width="12" height="12"/>
    <rect x="330" y="170" width="12" height="12"/>
    <rect x="618" y="714" width="12" height="12"/>
    <rect x="138" y="586" width="12" height="12"/>
    <rect x="234" y="266" width="12" height="12"/>
    <rect x="586" y="202" width="12" height="12"/>
    <rect x="618" y="618" width="12" height="12"/>
    <rect x="170" y="522" width="12" height="12"/>
    <rect x="394" y="490" width="12" height="12"/>
    <rect x="298" y="170" width="12" height="12"/>
    <rect x="266" y="650" width="12" height="12"/>
    <rect x="170" y="394" width="12" height="12"/>
    <rect x="266" y="298" width="12" height="12"/>
    <rect x="778" y="746" width="12" height="12"/>
    <rect x="394" y="618" width="12" height="12"/>
    <rect x="10" y="682" width="12" height="12"/>
    <rect x="522" y="106" width="12" height="12"/>
    <rect x="586" y="458" width="12" height="12"/>
    <rect x="650" y="714" width="12" height="12"/>
    <rect x="714" y="42" width="12" height="12"/>
    <rect x="778" y="106" width="12" height="12"/>
    <rect x="362" y="138" width="12" height="12"/>
    <rect x="778" y="42" width="12" height="12"/>
    <rect x="618" y="362" width="12" height="12"/>
    <rect x="746" y="714" width="12" height="12"/>
    <rect x="330" y="394" width="12" height="12"/>
    <rect x="234" y="330" width="12" height="12"/>
    <rect x="394" y="330" width="12" height="12"/>
    <rect x="426" y="170" width="12" height="12"/>
    <rect x="394" y="394" width="12" height="12"/>
    <rect x="650" y="618" width="12" height="12"/>
    <rect x="618" y="490" width="12" height="12"/>
    <rect x="650" y="682" width="12" height="12"/>
    <rect x="394" y="714" width="12" height="12"/>
    <rect x="74" y="778" width="12" height="12"/>
    <rect x="746" y="554" width="12" height="12"/>
    <rect x="362" y="554" width="12" height="12"/>
    <rect x="362" y="618" width="12" height="12"/>
    <rect x="330" y="746" width="12" height="12"/>
    <rect x="522" y="170" width="12" height="12"/>
    <rect x="426" y="458" width="12" height="12"/>
    <rect x="138" y="362" width="12" height="12"/>
    <rect x="74" y="650" width="12" height="12"/>
    <rect x="330" y="778" width="12" height="12"/>
    <rect x="362" y="714" width="12" height="12"/>
    <rect x="42" y="682" width="12" height="12"/>
    <rect x="586" y="42" width="12" height="12"/>
    <rect x="522" y="426" width="12" height="12"/>
    <rect x="554" y="746" width="12" height="12"/>
    <rect x="458" y="202" width="12" height="12"/>
    <rect x="138" y="490" width="12" height="12"/>
    <rect x="426" y="746" width="12" height="12"/>
    <rect x="298" y="714" width="12" height="12"/>
    <rect x="490" y="330" width="12" height="12"/>
    <rect x="298" y="106" width="12" height="12"/>
    <rect x="778" y="490" width="12" height="12"/>
    <rect x="554" y="298" width="12" height="12"/>
    <rect x="746" y="394" width="12" height="12"/>
  </g>
  <g fill="#6B7280" opacity="0.35">
    <rect x="298" y="490" width="12" height="12"/>
    <rect x="42" y="266" width="12" height="12"/>
    <rect x="522" y="490" width="12" height="12"/>
    <rect x="682" y="10" width="12" height="12"/>
    <rect x="554" y="74" width="12" height="12"/>
    <rect x="362" y="746" width="12" height="12"/>
    <rect x="746" y="650" width="12" height="12"/>
    <rect x="298" y="458" width="12" height="12"/>
    <rect x="522" y="746" width="12" height="12"/>
    <rect x="170" y="426" width="12" height="12"/>
    <rect x="234" y="586" width="12" height="12"/>
    <rect x="170" y="42" width="12" height="12"/>
    <rect x="618" y="586" width="12" height="12"/>
    <rect x="586" y="586" width="12" height="12"/>
    <rect x="10" y="10" width="12" height="12"/>
    <rect x="554" y="170" width="12" height="12"/>
    <rect x="458" y="554" width="12" height="12"/>
    <rect x="106" y="10" width="12" height="12"/>
    <rect x="522" y="362" width="12" height="12"/>
    <rect x="42" y="778" width="12" height="12"/>
    <rect x="650" y="10" width="12" height="12"/>
    <rect x="10" y="458" width="12" height="12"/>
    <rect x="106" y="426" width="12" height="12"/>
    <rect x="266" y="714" width="12" height="12"/>
    <rect x="650" y="490" width="12" height="12"/>
    <rect x="554" y="714" width="12" height="12"/>
    <rect x="490" y="490" width="12" height="12"/>
    <rect x="746" y="74" width="12" height="12"/>
    <rect x="234" y="746" width="12" height="12"/>
    <rect x="170" y="490" width="12" height="12"/>
    <rect x="458" y="170" width="12" height="12"/>
    <rect x="42" y="234" width="12" height="12"/>
    <rect x="714" y="586" width="12" height="12"/>
    <rect x="458" y="618" width="12" height="12"/>
    <rect x="202" y="586" width="12" height="12"/>
    <rect x="714" y="170" width="12" height="12"/>
    <rect x="42" y="586" width="12" height="12"/>
    <rect x="74" y="618" width="12" height="12"/>
    <rect x="10" y="234" width="12" height="12"/>
    <rect x="490" y="618" width="12" height="12"/>
    <rect x="10" y="298" width="12" height="12"/>
    <rect x="202" y="682" width="12" height="12"/>
    <rect x="42" y="298" width="12" height="12"/>
    <rect x="170" y="234" width="12" height="12"/>
    <rect x="522" y="522" width="12" height="12"/>
    <rect x="554" y="202" width="12" height="12"/>
    <rect x="330" y="618" width="12" height="12"/>
    <rect x="234" y="426" width="12" height="12"/>
    <rect x="490" y="426" width="12" height="12"/>
    <rect x="554" y="330" width="12" height="12"/>
    <rect x="74" y="714" width="12" height="12"/>
    <rect x="10" y="42" width="12" height="12"/>
    <rect x="42" y="746" width="12" height="12"/>
    <rect x="650" y="458" width="12" height="12"/>
    <rect x="682" y="746" width="12" height="12"/>
    <rect x="10" y="266" width="12" height="12"/>
    <rect x="202" y="362" width="12" height="12"/>
    <rect x="234" y="42" width="12" height="12"/>
    <rect x="778" y="426" width="12" height="12"/>
    <rect x="618" y="458" width="12" height="12"/>
    <rect x="458" y="234" width="12" height="12"/>
    <rect x="362" y="42" width="12" height="12"/>
    <rect x="714" y="394" width="12" height="12"/>
    <rect x="586" y="106" width="12" height="12"/>
    <rect x="426" y="714" width="12" height="12"/>
    <rect x="458" y="362" width="12" height="12"/>
    <rect x="522" y="298" width="12" height="12"/>
    <rect x="362" y="202" width="12" height="12"/>
    <rect x="298" y="10" width="12" height="12"/>
    <rect x="682" y="714" width="12" height="12"/>
    <rect x="202" y="554" width="12" height="12"/>
    <rect x="266" y="394" width="12" height="12"/>
    <rect x="458" y="106" width="12" height="12"/>
    <rect x="170" y="362" width="12" height="12"/>
    <rect x="362" y="426" width="12" height="12"/>
    <rect x="618" y="650" width="12" height="12"/>
    <rect x="778" y="170" width="12" height="12"/>
    <rect x="394" y="298" width="12" height="12"/>
    <rect x="10" y="554" width="12" height="12"/>
    <rect x="426" y="266" width="12" height="12"/>
    <rect x="650" y="362" width="12" height="12"/>
    <rect x="42" y="714" width="12" height="12"/>
    <rect x="714" y="106" width="12" height="12"/>
    <rect x="746" y="586" width="12" height="12"/>
    <rect x="138" y="522" width="12" height="12"/>
    <rect x="362" y="330" width="12" height="12"/>
    <rect x="138" y="202" width="12" height="12"/>
    <rect x="10" y="106" width="12" height="12"/>
    <rect x="266" y="330" width="12" height="12"/>
    <rect x="298" y="202" width="12" height="12"/>
    <rect x="746" y="234" width="12" height="12"/>
    <rect x="714" y="234" width="12" height="12"/>
    <rect x="330" y="682" width="12" height="12"/>
    <rect x="202" y="74" width="12" height="12"/>
    <rect x="10" y="330" width="12" height="12"/>
    <rect x="586" y="618" width="12" height="12"/>
    <rect x="394" y="778" width="12" height="12"/>
    <rect x="490" y="266" width="12" height="12"/>
    <rect x="778" y="522" width="12" height="12"/>
    <rect x="490" y="682" width="12" height="12"/>
    <rect x="234" y="394" width="12" height="12"/>
    <rect x="554" y="778" width="12" height="12"/>
    <rect x="74" y="586" width="12" height="12"/>
    <rect x="138" y="266" width="12" height="12"/>
    <rect x="74" y="394" width="12" height="12"/>
    <rect x="202" y="650" width="12" height="12"/>
    <rect x="522" y="266" width="12" height="12"/>
    <rect x="650" y="746" width="12" height="12"/>
    <rect x="458" y="298" width="12" height="12"/>
    <rect x="138" y="426" width="12" height="12"/>
    <rect x="298" y="42" width="12" height="12"/>
    <rect x="522" y="42" width="12" height="12"/>
    <rect x="650" y="202" width="12" height="12"/>
    <rect x="458" y="746" width="12" height="12"/>
    <rect x="554" y="682" width="12" height="12"/>
    <rect x="74" y="138" width="12" height="12"/>
    <rect x="746" y="458" width="12" height="12"/>
    <rect x="458" y="490" width="12" height="12"/>
    <rect x="426" y="522" width="12" height="12"/>
    <rect x="266" y="426" width="12" height="12"/>
    <rect x="362" y="266" width="12" height="12"/>
    <rect x="458" y="522" width="12" height="12"/>
    <rect x="682" y="170" width="12" height="12"/>
    <rect x="522" y="586" width="12" height="12"/>
    <rect x="490" y="74" width="12" height="12"/>
    <rect x="490" y="394" width="12" height="12"/>
    <rect x="138" y="618" width="12" height="12"/>
    <rect x="618" y="746" width="12" height="12"/>
    <rect x="778" y="266" width="12" height="12"/>
    <rect x="586" y="682" width="12" height="12"/>
    <rect x="394" y="42" width="12" height="12"/>
    <rect x="170" y="714" width="12" height="12"/>
    <rect x="330" y="490" width="12" height="12"/>
    <rect x="42" y="362" width="12" height="12"/>
    <rect x="650" y="234" width="12" height="12"/>
    <rect x="650" y="554" width="12" height="12"/>
    <rect x="618" y="298" width="12" height="12"/>
    <rect x="42" y="74" width="12" height="12"/>
    <rect x="170" y="682" width="12" height="12"/>
    <rect x="426" y="74" width="12" height="12"/>
    <rect x="490" y="362" width="12" height="12"/>
    <rect x="202" y="42" width="12" height="12"/>
    <rect x="330" y="106" width="12" height="12"/>
    <rect x="10" y="170" width="12" height="12"/>
    <rect x="714" y="522" width="12" height="12"/>
    <rect x="362" y="170" width="12" height="12"/>
    <rect x="234" y="138" width="12" height="12"/>
    <rect x="138" y="330" width="12" height="12"/>
    <rect x="778" y="714" width="12" height="12"/>
    <rect x="362" y="74" width="12" height="12"/>
    <rect x="522" y="682" width="12" height="12"/>
    <rect x="106" y="266" width="12" height="12"/>
    <rect x="330" y="298" width="12" height="12"/>
    <rect x="650" y="266" width="12" height="12"/>
    <rect x="714" y="714" width="12" height="12"/>
    <rect x="106" y="650" width="12" height="12"/>
    <rect x="266" y="746" width="12" height="12"/>
    <rect x="10" y="202" width="12" height="12"/>
    <rect x="554" y="554" width="12" height="12"/>
    <rect x="746" y="746" width="12" height="12"/>
    <rect x="106" y="106" width="12" height="12"/>
    <rect x="618" y="394" width="12" height="12"/>
    <rect x="202" y="202" width="12" height="12"/>
    <rect x="778" y="458" width="12" height="12"/>
    <rect x="170" y="298" width="12" height="12"/>
    <rect x="266" y="170" width="12" height="12"/>
    <rect x="522" y="394" width="12" height="12"/>
    <rect x="554" y="650" width="12" height="12"/>
    <rect x="426" y="426" width="12" height="12"/>
    <rect x="106" y="586" width="12" height="12"/>
    <rect x="554" y="42" width="12" height="12"/>
    <rect x="298" y="682" width="12" height="12"/>
    <rect x="74" y="266" width="12" height="12"/>
    <rect x="778" y="778" width="12" height="12"/>
    <rect x="682" y="330" width="12" height="12"/>
    <rect x="714" y="362" width="12" height="12"/>
    <rect x="426" y="554" width="12" height="12"/>
    <rect x="618" y="522" width="12" height="12"/>
    <rect x="202" y="234" width="12" height="12"/>
    <rect x="138" y="298" width="12" height="12"/>
    <rect x="426" y="42" width="12" height="12"/>
    <rect x="266" y="778" width="12" height="12"/>
    <rect x="618" y="554" width="12" height="12"/>
    <rect x="682" y="490" width="12" height="12"/>
    <rect x="746" y="618" width="12" height="12"/>
    <rect x="746" y="682" width="12" height="12"/>
    <rect x="202" y="394" width="12" height="12"/>
    <rect x="106" y="202" width="12" height="12"/>
    <rect x="42" y="106" width="12" height="12"/>
    <rect x="330" y="586" width="12" height="12"/>
    <rect x="266" y="138" width="12" height="12"/>
    <rect x="586" y="522" width="12" height="12"/>
    <rect x="10" y="522" width="12" height="12"/>
    <rect x="234" y="714" width="12" height="12"/>
    <rect x="714" y="650" width="12" height="12"/>
    <rect x="714" y="746" width="12" height="12"/>
    <rect x="682" y="106" width="12" height="12"/>
    <rect x="586" y="74" width="12" height="12"/>
  </g>
</svg>
